<svg width="24" height="24" viewBox="0 0 1024 1024" fill="none" xmlns="http://www.w3.org/2000/svg">
<path fill="currentColor" opacity="1.000000" stroke="none"
	d="
M317.821564,757.098938
	C270.239197,751.024841 229.067642,731.836609 193.237350,700.833252
	C143.543655,657.833984 113.208000,603.996704 105.373199,538.683289
	C96.942017,468.398102 116.264328,405.444672 160.281509,350.204041
	C182.632751,322.153625 209.142090,298.495941 241.348785,282.396118
	C316.631226,244.763077 390.319061,248.611862 461.739899,293.144867
	C469.628174,298.063446 477.131531,303.704926 484.330261,309.601044
	C498.004181,320.800690 500.219421,339.702362 489.852844,352.865326
	C478.832367,366.858612 460.276184,369.548492 445.911926,358.261810
	C431.816895,347.186615 417.312714,336.857239 400.671906,330.145477
	C353.812836,311.245819 308.155945,315.047760 264.848633,340.298859
	C213.490555,370.244141 181.282242,415.049255 168.957382,473.113373
	C157.319031,527.943237 170.551498,577.916443 203.450531,622.661072
	C228.449570,656.661133 260.749329,681.155273 302.073303,691.904236
	C353.570526,705.299316 400.765656,694.951294 443.441071,663.685730
	C454.048920,655.914001 464.962372,653.062683 477.032135,658.695312
	C498.719757,668.816284 501.722229,696.850159 482.729187,711.888489
	C468.962677,722.788513 453.721130,731.367554 437.657013,738.421265
	C399.521057,755.166382 359.867340,762.392578 317.821564,757.098938
z"/>
<path fill="currentColor" opacity="1.000000" stroke="none"
	d="
M568.161865,418.247437
	C528.826599,495.995728 550.460571,580.279602 608.363892,636.348572
	C625.858337,653.288818 645.264771,667.744934 668.784851,675.079041
	C680.125671,678.615295 692.177612,679.901367 703.937256,682.043640
	C707.020386,682.605286 710.214172,682.559509 714.363159,682.867371
	C704.401245,703.240540 694.691162,723.098694 684.963257,742.993347
	C661.419067,739.517944 639.493225,732.356384 619.017761,721.256897
	C553.973206,685.997253 511.298828,632.213440 493.880188,560.703674
	C471.676300,469.548645 495.874634,390.069336 561.897400,323.621613
	C590.080444,295.257233 623.516113,274.880890 662.172852,264.100311
	C712.533264,250.055801 760.986145,256.571045 806.796570,280.987396
	C821.823669,288.996613 835.788635,299.209137 849.514893,309.390656
	C863.886353,320.050751 865.642639,339.573639 854.579773,353.325073
	C843.533936,367.055359 825.021118,369.302307 811.017395,357.962036
	C796.030701,345.825775 780.195862,335.127411 762.226624,328.076477
	C723.352661,312.822723 685.442017,316.148895 649.015625,335.810974
	C613.777405,354.831665 586.679443,382.150177 568.161865,418.247437
z"/>
<path fill="currentColor" opacity="1.000000" stroke="none"
	d="
M917.272095,674.196899
	C900.945862,693.296204 877.297852,691.257263 864.779907,670.113159
	C863.998108,668.792664 861.752686,667.567627 860.205322,667.588196
	C840.049988,667.856567 819.896851,668.322571 799.746826,668.875610
	C798.286377,668.915649 796.454956,669.638916 795.474670,670.682190
	C788.977478,677.596924 782.665588,684.685852 777.085938,690.843567
	C778.221985,697.422119 779.132812,703.236145 780.292175,709.000122
	C780.556213,710.313049 781.438782,711.717285 782.443176,712.634033
	C807.046021,735.090088 831.739380,757.447205 856.293579,779.956116
	C858.588379,782.059753 860.341919,781.080017 862.560059,780.465088
	C875.596252,776.851501 886.659363,780.090576 895.210876,790.624023
	C903.328125,800.622620 904.544373,811.829224 899.129761,823.379333
	C892.376404,837.784851 875.413696,844.372864 860.675964,838.799438
	C845.762390,833.159363 837.766357,817.340820 841.807434,801.890137
	C842.258789,800.164185 842.183533,797.311462 841.113098,796.321960
	C817.637695,774.620789 793.986694,753.109375 770.121460,731.335388
	C758.467346,740.252808 746.231750,741.491516 732.925781,733.525024
	C728.558472,739.604492 724.091614,745.730591 719.721680,751.925049
	C711.276001,763.896912 702.989746,775.983215 694.396851,787.847839
	C692.266602,790.789124 692.055237,792.852722 693.824158,796.181030
	C700.660217,809.043396 697.654907,824.209412 686.931519,833.402161
	C676.703491,842.170227 660.442017,843.151367 649.720947,835.647278
	C637.753052,827.270508 632.866028,812.022766 637.979065,799.012146
	C642.776672,786.804077 654.845337,778.578064 668.091125,779.229919
	C672.257996,779.434998 674.300476,777.963074 676.498596,774.802063
	C690.091492,755.255249 703.932556,735.881104 717.546753,716.348877
	C718.755371,714.614746 719.629944,712.109192 719.477356,710.049500
	C718.190735,692.687195 734.207336,674.092041 754.895996,677.667908
	C756.672546,677.974976 759.345093,676.726562 760.685303,675.324768
	C767.935364,667.742249 774.940857,659.923218 781.938538,652.103271
	C785.372009,648.266296 789.445679,646.486328 794.665405,646.417603
	C816.320557,646.132446 837.972168,645.586243 859.626526,645.217773
	C862.272461,645.172729 864.097961,644.796143 865.637024,642.080200
	C874.351868,626.701782 892.079590,621.389343 906.680237,629.502136
	C922.059448,638.047668 927.164490,656.398315 918.556946,672.219727
	C918.239685,672.802856 917.845642,673.344177 917.272095,674.196899
z"/>
<path fill="currentColor" opacity="1.000000" stroke="none"
	d="
M861.199463,625.954956
	C861.195557,628.108093 861.195557,629.767212 861.195557,631.851990
	C840.834106,631.851990 820.636597,631.851990 799.901001,631.851990
	C799.901001,604.450684 799.901001,577.061646 799.901001,549.125671
	C797.592957,549.125671 795.812256,549.125061 794.031555,549.125732
	C761.207092,549.138062 728.382568,549.185059 695.558167,549.146362
	C682.301453,549.130676 670.904297,541.054260 666.438293,528.746033
	C662.012024,516.547424 665.728943,502.806824 675.740295,494.288300
	C681.159241,489.677399 687.460876,487.293060 694.526428,487.286621
	C739.347656,487.245758 784.169373,487.156738 828.989746,487.356506
	C846.546509,487.434753 859.284485,499.780060 860.935120,517.497498
	C861.135620,519.649780 861.165222,521.823914 861.166687,523.987976
	C861.189270,557.812317 861.194275,591.636597 861.199463,625.954956
z"/>
</svg>
